HIERARCHY
ROOT hip
{
  OFFSET 0 0 0
  CHANNELS 6 Xposition Yposition Zposition Zrotation Yrotation Xrotation
  JOINT abdomen
  {
    OFFSET 0 20.6881 -0.73152
    CHANNELS 3 Zrotation Xrotation Yrotation
    JOINT chest
    {
      OFFSET 0 11.7043 -0.48768
      CHANNELS 3 Zrotation Xrotation Yrotation
      JOINT neck
      {
        OFFSET 0 22.1894 -2.19456
        CHANNELS 3 Zrotation Xrotation Yrotation
        JOINT head
        {
          OFFSET -0.24384 7.07133 1.2192
          CHANNELS 3 Zrotation Xrotation Yrotation
          JOINT leftEye
          {
            OFFSET 4.14528 8.04674 8.04672
            CHANNELS 3 Zrotation Xrotation Yrotation
            End Site
            {
              OFFSET 1 0 0
            }
          }
          JOINT rightEye
          {
            OFFSET -3.6576 8.04674 8.04672
            CHANNELS 3 Zrotation Xrotation Yrotation
            End Site
            {
              OFFSET 1 0 0
            }
          }
        }
      }
      JOINT rCollar
      {
        OFFSET -2.68224 19.2634 -4.8768
        CHANNELS 3 Zrotation Xrotation Yrotation
        JOINT rShldr
        {
          OFFSET -8.77824 -1.95073 1.46304
          CHANNELS 3 Zrotation Xrotation Yrotation
          JOINT rForeArm
          {
            OFFSET -28.1742 -1.7115 0.48768
            CHANNELS 3 Zrotation Xrotation Yrotation
            JOINT rHand
            {
              OFFSET -22.5879 0.773209 7.07136
              CHANNELS 3 Zrotation Xrotation Yrotation
              JOINT rThumb1
              {
                OFFSET -1.2192 -0.487915 3.41376
                CHANNELS 3 Zrotation Xrotation Yrotation
                JOINT rThumb2
                {
                  OFFSET -3.37035 -0.52449 3.41376
                  CHANNELS 3 Zrotation Xrotation Yrotation
                  End Site
                  {
                    OFFSET -1.78271 -1.18214 1.43049
                  }
                }
              }
              JOINT rIndex1
              {
                OFFSET -7.75947 0.938293 5.60832
                CHANNELS 3 Zrotation Xrotation Yrotation
                JOINT rIndex2
                {
                  OFFSET -2.54057 -0.884171 1.56538
                  CHANNELS 3 Zrotation Xrotation Yrotation
                  End Site
                  {
                    OFFSET -1.62519 -0.234802 1.16502
                  }
                }
              }
              JOINT rMid1
              {
                OFFSET -8.24714 1.18213 3.41376
                CHANNELS 3 Zrotation Xrotation Yrotation
                JOINT rMid2
                {
                  OFFSET -3.10165 -0.590103 1.0647
                  CHANNELS 3 Zrotation Xrotation Yrotation
                  End Site
                  {
                    OFFSET -2.48547 -0.328903 0.83742
                  }
                }
              }
              JOINT rRing1
              {
                OFFSET -8.82822 0.546677 1.51678
                CHANNELS 3 Zrotation Xrotation Yrotation
                JOINT rRing2
                {
                  OFFSET -2.60934 -0.819778 -0.0198488
                  CHANNELS 3 Zrotation Xrotation Yrotation
                  End Site
                  {
                    OFFSET -2.33842 -0.294052 0.168128
                  }
                }
              }
              JOINT rPinky1
              {
                OFFSET -8.27202 -0.0477905 -0.4584
                CHANNELS 3 Zrotation Xrotation Yrotation
                JOINT rPinky2
                {
                  OFFSET -1.82734 -0.647385 -0.700984
                  CHANNELS 3 Zrotation Xrotation Yrotation
                  End Site
                  {
                    OFFSET -1.69225 -0.51767 -0.607171
                  }
                }
              }
            }
          }
        }
      }
      JOINT lCollar
      {
        OFFSET 2.68224 19.2634 -4.8768
        CHANNELS 3 Zrotation Xrotation Yrotation
        JOINT lShldr
        {
          OFFSET 8.77824 -1.95073 1.46304
          CHANNELS 3 Zrotation Xrotation Yrotation
          JOINT lForeArm
          {
            OFFSET 28.1742 -1.7115 0.48768
            CHANNELS 3 Zrotation Xrotation Yrotation
            JOINT lHand
            {
              OFFSET 22.5879 0.773209 7.07136
              CHANNELS 3 Zrotation Xrotation Yrotation
              JOINT lThumb1
              {
                OFFSET 1.2192 -0.487915 3.41376
                CHANNELS 3 Zrotation Xrotation Yrotation
                JOINT lThumb2
                {
                  OFFSET 3.37035 -0.52449 3.41376
                  CHANNELS 3 Zrotation Xrotation Yrotation
                  End Site
                  {
                    OFFSET 1.78271 -1.18214 1.43049
                  }
                }
              }
              JOINT lIndex1
              {
                OFFSET 7.75947 0.938293 5.60832
                CHANNELS 3 Zrotation Xrotation Yrotation
                JOINT lIndex2
                {
                  OFFSET 2.54057 -0.884171 1.56538
                  CHANNELS 3 Zrotation Xrotation Yrotation
                  End Site
                  {
                    OFFSET 1.62519 -0.234802 1.16502
                  }
                }
              }
              JOINT lMid1
              {
                OFFSET 8.24714 1.18213 3.41376
                CHANNELS 3 Zrotation Xrotation Yrotation
                JOINT lMid2
                {
                  OFFSET 3.10165 -0.590103 1.0647
                  CHANNELS 3 Zrotation Xrotation Yrotation
                  End Site
                  {
                    OFFSET 2.48547 -0.328903 0.83742
                  }
                }
              }
              JOINT lRing1
              {
                OFFSET 8.82822 0.546677 1.51678
                CHANNELS 3 Zrotation Xrotation Yrotation
                JOINT lRing2
                {
                  OFFSET 2.60934 -0.819778 -0.0198488
                  CHANNELS 3 Zrotation Xrotation Yrotation
                  End Site
                  {
                    OFFSET 2.33842 -0.294052 0.168128
                  }
                }
              }
              JOINT lPinky1
              {
                OFFSET 8.27202 -0.0477905 -0.4584
                CHANNELS 3 Zrotation Xrotation Yrotation
                JOINT lPinky2
                {
                  OFFSET 1.82734 -0.647385 -0.700984
                  CHANNELS 3 Zrotation Xrotation Yrotation
                  End Site
                  {
                    OFFSET 1.69225 -0.51767 -0.607171
                  }
                }
              }
            }
          }
        }
      }
    }
  }
  JOINT rButtock
  {
    OFFSET -8.77824 4.35084 1.2192
    CHANNELS 3 Zrotation Xrotation Yrotation
    JOINT rThigh
    {
      OFFSET 0 -1.70687 -2.19456
      CHANNELS 3 Zrotation Xrotation Yrotation
      JOINT rShin
      {
        OFFSET 0 -36.8199 0.73152
        CHANNELS 3 Zrotation Xrotation Yrotation
        JOINT rFoot
        {
          OFFSET 0.73152 -45.1104 -5.12064
          CHANNELS 3 Zrotation Xrotation Yrotation
          End Site
          {
            OFFSET -1.1221 -3.69964 12.103
          }
        }
      }
    }
  }
  JOINT lButtock
  {
    OFFSET 8.77824 4.35084 1.2192
    CHANNELS 3 Zrotation Xrotation Yrotation
    JOINT lThigh
    {
      OFFSET 0 -1.70687 -2.19456
      CHANNELS 3 Zrotation Xrotation Yrotation
      JOINT lShin
      {
        OFFSET 0 -36.8199 0.73152
        CHANNELS 3 Zrotation Xrotation Yrotation
        JOINT lFoot
        {
          OFFSET -0.73152 -45.1104 -5.12064
          CHANNELS 3 Zrotation Xrotation Yrotation
          End Site
          {
            OFFSET 1.1221 -3.69964 12.103
          }
        }
      }
    }
  }
}
MOTION
Frames:	6
Frame Time:	0.00833333
4.782485 82.2549 -23.602757 -8.361302 -66.92706 14.51278 6.6952047 -6.6863484 13.0792265 -0.4210917 2.182043 4.450962 -1.5271385 8.587259 -5.0416656 -4.065299 -5.1167808 -11.229707 -0.025956638 0.07516903 -0.048323013 -0.045540925 -0.06229469 -0.04097449 0.07320463 -0.07925959 0.020860678 76.732574 29.658592 36.17123 -27.690853 -27.056087 62.377247 -1.1785669 -30.474623 -4.424737 0.00912065 0.06139198 0.08051882 0.02832458 0.10896782 -0.08204956 0.06109337 0.048240237 -0.03160056 7.665795 5.3935795 0.44942206 -0.09267512 0.0538364 -0.021352185 2.9353247 0.9776954 0.07818048 0.017670712 0.038870674 -0.06563003 10.280975 0.74270403 0.089827925 0.055863474 0.057450905 -0.052668653 2.2430544 -0.73356295 -0.2541912 -0.034007218 -0.09260322 0.0012100373 -67.4326 69.65821 -26.57992 28.244648 -33.877502 -73.264854 2.0394495 -31.247236 5.8067503 0.021021666 -0.009749721 -0.072982274 0.055189848 0.010096513 -0.12994653 0.022856906 0.015422633 -0.07937549 -7.62946 5.49556 -0.42650872 -0.10875224 -0.053097274 -0.06345635 -2.9323466 0.93980646 -0.05489017 -0.06039749 0.042476572 0.049034245 -10.252159 0.7235555 -0.0071417093 -0.05541878 -0.07440327 -0.0076129925 -2.290594 -0.735072 0.19363463 0.05015069 0.03898269 0.014656705 -5.4090257 -19.48474 -2.3339324 0.035647664 25.068954 0.522009 -2.993388 -8.245311 -18.847023 -0.077510394 -0.081865735 -0.02239571 4.760212 -29.106628 -15.300082 0.17463385 39.73142 -0.43671048 0.411918 -12.693242 -2.2932372
5.081484 81.83539 -24.025711 -6.832015 -66.661736 13.072482 6.530027 -6.4050727 14.218384 -0.3734519 1.8656541 4.7157493 -1.6532246 8.66042 -5.581384 -4.004625 -6.7719216 -12.247067 -0.03664535 0.0647982 -0.0397445 -0.058123145 -0.05685756 -0.05052736 0.07985961 -0.08312278 0.023455296 78.07441 25.514944 37.333008 -26.947897 -25.274649 59.540066 -1.0572585 -31.97866 -4.8483434 0.021955242 0.061733436 0.075107634 0.018010408 0.11767716 -0.07835219 0.053220138 0.048155714 -0.019324793 7.6610265 5.3776336 0.4436683 -0.0891668 0.048499145 -0.015036874 2.9135714 0.9703026 0.087278605 0.016631136 0.051189143 -0.06598519 10.262005 0.7427462 0.10894514 0.05535932 0.055524394 -0.05307889 2.2368119 -0.72565734 -0.25172862 -0.044946484 -0.099304006 -0.0020318478 -73.603065 69.429085 -18.576809 27.817598 -33.50819 -72.926674 2.5518785 -33.767155 6.389562 0.023539873 -0.0076610707 -0.07929134 0.06870775 0.0052255215 -0.13999662 0.017578559 0.013989081 -0.090929985 -7.6104746 5.4803324 -0.42218006 -0.12209016 -0.053615782 -0.06705682 -2.9196289 0.93402445 -0.058211938 -0.07074288 0.039129086 0.04073175 -10.235385 0.72809994 -0.009483931 -0.054125097 -0.064272426 -0.005450971 -2.2868176 -0.73303956 0.18406568 0.048077565 0.049706273 0.00060113665 -5.442265 -19.893044 -2.7571332 -0.012261363 27.258366 0.60570973 -3.89327 -9.367691 -19.354519 -0.071948595 -0.08152086 -0.025009537 5.5488076 -30.77499 -15.540325 0.23188266 40.90005 -0.45032033 -0.22354013 -12.276573 -5.0625486
5.361035 81.43119 -24.226442 -5.457641 -66.50582 11.474567 6.4468856 -5.9673986 15.094829 -0.41588175 1.6885955 4.8390517 -1.7515428 8.6181 -6.098165 -4.1772947 -8.726607 -12.862219 -0.046504833 0.057247013 -0.028799018 -0.07007822 -0.051824823 -0.058843438 0.08631688 -0.08624242 0.023347186 79.39011 21.406746 37.696472 -26.30869 -23.796381 57.055546 -1.1459488 -33.420033 -5.3937626 0.032333232 0.06288902 0.069712766 0.0076752114 0.12165406 -0.069230154 0.04379864 0.044337265 -0.006388414 7.6574802 5.364421 0.43747473 -0.08140634 0.04147328 -0.0087589165 2.8898969 0.95959467 0.095980264 0.018944222 0.05976981 -0.06560823 10.246217 0.7428923 0.12476957 0.055836473 0.05179775 -0.05209588 2.2336254 -0.7202273 -0.24658385 -0.053304102 -0.10076647 -0.0026299695 -78.59837 67.57224 -11.268793 27.52751 -33.241848 -72.62146 2.8760035 -35.57901 6.6815886 0.025046997 -0.008085396 -0.080241114 0.078833506 0.0037556433 -0.15000616 0.013180504 0.013763578 -0.098520294 -7.5956616 5.4640565 -0.41736108 -0.13250129 -0.051677022 -0.068673916 -2.908287 0.92905927 -0.058857925 -0.07783086 0.032610096 0.031377435 -10.2243595 0.7314442 -0.012321447 -0.051470287 -0.0547267 -0.0011646539 -2.2786622 -0.7291694 0.17444107 0.04384445 0.060437217 -0.014249802 -5.737763 -20.9225 -3.2993548 -0.09976686 30.062168 0.72190404 -4.7352147 -10.731324 -19.549911 -0.06572888 -0.07763235 -0.026842829 6.3923993 -32.214226 -15.852928 0.26327935 42.162334 -0.44529095 -1.1128306 -11.813483 -7.923207
5.5925484 80.98488 -24.241154 -4.4291615 -65.931694 9.993239 6.7031636 -5.119616 15.763211 -0.6165877 1.6286191 4.8469543 -1.8222871 8.555996 -6.6346855 -4.2982974 -10.749447 -13.60745 -0.053584967 0.053865165 -0.019173248 -0.07859941 -0.0470702 -0.06368947 0.09241867 -0.09020252 0.023990665 80.42584 17.864862 38.728947 -25.831236 -22.82079 55.396744 -1.4299704 -34.933628 -5.923376 0.041395374 0.064524956 0.062509514 -0.0026111598 0.1238929 -0.05642376 0.038490143 0.037274797 0.0023776528 7.652277 5.3516593 0.4323963 -0.07367933 0.033463657 -0.0010246884 2.8685987 0.95162654 0.104560375 0.025711339 0.0608548 -0.0659407 10.233357 0.7449883 0.13516062 0.05616528 0.049319167 -0.04908942 2.2332933 -0.7194555 -0.2403458 -0.056355353 -0.098242074 0.002984659 -81.79565 65.52023 -5.086837 27.614344 -33.42112 -72.8604 3.1136055 -36.589767 6.8783092 0.027912874 -0.012338736 -0.0753095 0.085285045 0.0067088464 -0.15563151 0.009523897 0.015417137 -0.10094603 -7.580398 5.4501586 -0.41196945 -0.13895854 -0.04453846 -0.06896404 -2.8979115 0.9261232 -0.0582653 -0.081184134 0.026271734 0.022108093 -10.215917 0.7327215 -0.0155067695 -0.04643644 -0.048704263 0.0057160677 -2.2694454 -0.72724277 0.1687155 0.041506283 0.06796467 -0.026312875 -6.3824053 -22.282467 -4.2876115 -0.21984659 32.992508 0.83374614 -5.2758307 -11.740896 -19.244545 -0.0599439 -0.06954573 -0.025346484 7.4541607 -33.71243 -16.270077 0.324483 43.773983 -0.5100222 -1.8955554 -11.359565 -9.958937
5.7724695 80.52727 -24.04913 -3.3501778 -65.09804 8.719313 6.871799 -4.21918 16.402826 -0.84036314 1.6696465 4.835048 -1.8579544 8.599001 -7.244205 -4.278499 -12.242716 -14.621296 -0.058770787 0.051730048 -0.010947726 -0.08269881 -0.043089468 -0.06403382 0.09390269 -0.09522353 0.02541908 81.43348 14.640431 40.221558 -25.406507 -22.088001 54.173214 -1.8481872 -36.220245 -6.343333 0.047762655 0.065790616 0.054304164 -0.012797372 0.1235841 -0.044122167 0.039536603 0.028380714 0.0060311635 7.644564 5.339354 0.43084595 -0.06838738 0.02620466 0.004882731 2.854507 0.94943666 0.11360472 0.03414038 0.056255598 -0.06556433 10.219979 0.7523626 0.14249897 0.05584181 0.04883353 -0.044293348 2.2357974 -0.7222773 -0.23627405 -0.056683604 -0.09458152 0.011235767 -83.012314 63.440323 -0.45154426 27.848274 -33.81063 -73.37524 3.2224007 -37.38166 7.0540714 0.034520254 -0.020102847 -0.06796102 0.08791958 0.011724126 -0.1563856 0.0069195684 0.016760282 -0.09933031 -7.5657983 5.4395475 -0.40775603 -0.14020975 -0.035386115 -0.06903069 -2.8934042 0.92606163 -0.05872004 -0.083389856 0.019150943 0.012769839 -10.207528 0.73476285 -0.015173371 -0.039525956 -0.047226086 0.013359369 -2.2640293 -0.7304632 0.16681767 0.0425505 0.072796404 -0.033203147 -7.167409 -23.947163 -5.1718946 -0.28802884 35.503616 0.8539998 -5.461929 -12.470075 -18.846401 -0.054251067 -0.05952024 -0.021334976 9.021839 -35.261883 -16.476479 0.33037537 45.023743 -0.5635875 -2.4174728 -10.887398 -10.616261
5.9111233 80.045715 -23.54315 -2.8181403 -64.91971 8.554667 6.786344 -3.6511338 17.104713 -1.2196178 1.7906783 4.822749 -1.76213 8.710666 -7.745552 -4.342162 -13.347736 -15.633803 -0.06071974 0.04840153 -0.0018829443 -0.082612894 -0.03957972 -0.061441682 0.08840145 -0.09979845 0.026201565 82.14019 12.165815 41.522907 -25.107563 -21.481329 53.115494 -2.2151506 -37.514244 -6.6430426 0.051780354 0.06585327 0.046825506 -0.018594176 0.119163714 -0.03749539 0.045593537 0.021521231 0.0071927225 7.627871 5.3205214 0.42925823 -0.0656728 0.022539197 0.00876612 2.84375 0.94571114 0.12225152 0.042655382 0.049759354 -0.064355604 10.196305 0.75972366 0.14874598 0.054185167 0.04797431 -0.04109949 2.235217 -0.7219359 -0.23518303 -0.055730794 -0.092997715 0.019874008 -82.33623 61.386383 2.1079504 27.987999 -34.084824 -73.73092 3.1265876 -38.482906 7.161196 0.044188946 -0.027569683 -0.06341062 0.08592612 0.014901124 -0.15617515 0.0025567317 0.016962573 -0.0951051 -7.5448723 5.424002 -0.4029328 -0.13936643 -0.028292857 -0.07229232 -2.8900068 0.9289616 -0.061471965 -0.083457224 0.01209968 0.007360649 -10.190228 0.7366037 -0.010315933 -0.032311834 -0.047646675 0.019785883 -2.2585828 -0.73342425 0.16699907 0.043468576 0.07478587 -0.033522353 -7.8798165 -25.660372 -5.8405895 -0.26757243 37.33761 0.78221333 -5.3691516 -13.091004 -18.314377 -0.04857609 -0.049347155 -0.018840916 10.831059 -36.132435 -16.056408 0.26010603 45.15126 -0.5459183 -2.5782938 -10.538712 -9.83012
